<?xml version="1.0" encoding="utf-8"?>
<!-- Generator: Adobe Illustrator 20.0.0, SVG Export Plug-In . SVG Version: 6.00 Build 0)  -->
<svg version="1.1" id="Forma_1_1_" xmlns="http://www.w3.org/2000/svg" xmlns:xlink="http://www.w3.org/1999/xlink" x="0px" y="0px"
	 viewBox="0 0 69 90" style="enable-background:new 0 0 69 90;" xml:space="preserve">
<style type="text/css">
	.st0{fill-rule:evenodd;clip-rule:evenodd;fill:url(#SVGID_1_);}
</style>
<g id="Forma_1">
	<g>
		<linearGradient id="SVGID_1_" gradientUnits="userSpaceOnUse" x1="34.5" y1="90.0001" x2="34.5" y2="7.510185e-05">
			<stop  offset="0" style="stop-color:#00ACAA"/>
			<stop  offset="1" style="stop-color:#0091BB"/>
		</linearGradient>
		<path class="st0" d="M53.3,36.3v-18C53.3,8.2,44.5,0,33.7,0C22.9,0,14.1,8.2,14.1,18.3v18H0V90h69V36.3H53.3z M17.2,18.3
			c0-8.4,7.4-15.2,16.5-15.2c9.1,0,16.5,6.8,16.5,15.2v18H17.2V18.3z M65.9,86.8H3.1v-6.3h62.7V86.8z M65.9,77.4H3.1V39.5h62.7V77.4
			z M34.5,71.1c3.5,0,6.3-2.8,6.3-6.3v-9.5c0-3.5-2.8-6.3-6.3-6.3c-3.5,0-6.3,2.8-6.3,6.3v9.5C28.2,68.2,31,71.1,34.5,71.1z
			 M31.4,55.3c0-1.7,1.4-3.2,3.1-3.2s3.1,1.4,3.1,3.2v9.5c0,1.7-1.4,3.2-3.1,3.2s-3.1-1.4-3.1-3.2V55.3z"/>
	</g>
</g>
</svg>
