<svg xmlns="http://www.w3.org/2000/svg" xmlns:xlink="http://www.w3.org/1999/xlink" preserveAspectRatio="xMidYMid" width="132" height="148.594" viewBox="0 0 132 148.594">
  <defs>
    <style>
      .cls-1 {
        fill: #fff;
        stroke: #f9c82d;
        stroke-width: 1px;
        fill-rule: evenodd;
      }
    </style>
  </defs>
  <path d="M49.919,143.041 C39.011,136.271 27.992,129.697 16.864,123.320 C5.735,116.943 0.281,107.181 0.502,94.034 C0.722,80.886 0.722,67.739 0.502,54.591 C0.281,41.443 5.735,31.681 16.864,25.305 C27.992,18.928 39.011,12.355 49.919,5.583 C60.827,-1.188 71.735,-1.188 82.644,5.583 C93.552,12.355 104.570,18.928 115.699,25.305 C126.827,31.681 132.281,41.443 132.061,54.591 C131.841,67.739 131.841,80.886 132.061,94.034 C132.281,107.181 126.827,116.943 115.699,123.320 C104.570,129.697 93.552,136.271 82.644,143.041 C71.735,149.812 60.827,149.812 49.919,143.041 Z" class="cls-1"/>
</svg>
